PathFileType	3	(X/Y/Z)	F:\ViconData\AntennenMessung\Messung1\Session1\ID13.trc
DataRate	CameraRate	NumFrames	NumMarkers	Units	OrigDataRate	OrigDataStartFrame	OrigNumFrames
120.0	120.0	4	70	mm	120.0	799	912	
Frame#	Time	Ashort			Along			Atop			A4			Bshort			Blong			Btop			B4			Cshort			Clong			Ctop			C4			Dshort			Dlong			Dtop			D4			Eshort			Elong			Etop			E4			Fshort			Flong			Ftop			F4			Gshort			Glong			Gtop			G4			Hshort			Hlong			Htop			H4			I1			I2			I3			I4			I5			WandAshort			WandAlong			WandAtop			WandA4			WandA15			WandBshort			WandB4			WandB5			WandBtop			WandBlong			WandCshort			WandClong			WandCtop			WandC4			WandC5			Acenter			Aantenna			Bcenter			Bantenna			Ccenter			Cantenna			Dcenter			Dantenna			Ecenter			Eantenna			Fcenter			Fantenna			Gcenter			Gantenna			Hcenter			Hantenna			Icenter			Iantenna			
		X1	Y1	Z1	X2	Y2	Z2	X3	Y3	Z3	X4	Y4	Z4	X5	Y5	Z5	X6	Y6	Z6	X7	Y7	Z7	X8	Y8	Z8	X9	Y9	Z9	X10	Y10	Z10	X11	Y11	Z11	X12	Y12	Z12	X13	Y13	Z13	X14	Y14	Z14	X15	Y15	Z15	X16	Y16	Z16	X17	Y17	Z17	X18	Y18	Z18	X19	Y19	Z19	X20	Y20	Z20	X21	Y21	Z21	X22	Y22	Z22	X23	Y23	Z23	X24	Y24	Z24	X25	Y25	Z25	X26	Y26	Z26	X27	Y27	Z27	X28	Y28	Z28	X29	Y29	Z29	X30	Y30	Z30	X31	Y31	Z31	X32	Y32	Z32	X33	Y33	Z33	X34	Y34	Z34	X35	Y35	Z35	X36	Y36	Z36	X37	Y37	Z37	X38	Y38	Z38	X39	Y39	Z39	X40	Y40	Z40	X41	Y41	Z41	X42	Y42	Z42	X43	Y43	Z43	X44	Y44	Z44	X45	Y45	Z45	X46	Y46	Z46	X47	Y47	Z47	X48	Y48	Z48	X49	Y49	Z49	X50	Y50	Z50	X51	Y51	Z51	X52	Y52	Z52	X53	Y53	Z53	X54	Y54	Z54	X55	Y55	Z55	X56	Y56	Z56	X57	Y57	Z57	X58	Y58	Z58	X59	Y59	Z59	X60	Y60	Z60	X61	Y61	Z61	X62	Y62	Z62	X63	Y63	Z63	X64	Y64	Z64	X65	Y65	Z65	X66	Y66	Z66	X67	Y67	Z67	X68	Y68	Z68	X69	Y69	Z69	X70	Y70	Z70	
799	6.65	-1038.2615	214.53357	-1644.1096	-1109.3866	204.12094	-1599.3512	-1063.5754	173.03947	-1625.8855	-1054.1696	262.27371	-1634.8925	-1352.6968	235.41174	1003.7154	-1281.3938	227.36473	1052.1503	-1322.7294	194.08742	1020.7238	-1284.6321	287.82959	1052.75	813.86877	187.52208	1209.467	892.59631	178.49812	1179.069	844.47528	145.48126	1198.3047	861.11841	292.60498	1168.4902	1115.8138	209.95775	-1401.7917	1056.3159	194.05798	-1460.2256	1095.2273	162.45314	-1423.8972	1069.7456	238.841	-1425.8973	-1204.5485	1686.0205	-1563.2611	-1129.1648	1688.2754	-1605.9961	-1173.186	1724.46	-1581.9116	-1134.0229	1581.0424	-1603.8708	-1239.5002	1698.9507	1119.3796	-1308.173	1699.6066	1068.2188	-1270.4827	1736.3193	1096.8931	-1244.8942	1594.0857	1106.2354	988.83777	1664.2242	1162.2338	957.27704	1700.4923	1183.8107	922.01001	1662.3319	1214.9061	939.82513	1659.448	1159.8577	999.11432	1668.4558	-1579.4404	1058.9193	1670.1431	-1518.7224	1025.0532	1708.0435	-1551.1777	1059.3038	1672.1495	-1585.4347	-187.69606	1177.2938	-236.59915	-194.12219	1178.999	-152.47958	-191.50212	1215.0126	-199.66531	-222.38507	1175.614	-202.05017	-142.48073	1180.4696	-196.02858																																														-1068.4968	210.10713	-1625.0826	-1073.6287	248.75896	-1624.2455	-1321.3672	231.87601	1024.9968	-1319.9712	270.60419	1029.3761	848.05774	183.60324	1196.2661	851.70154	222.37724	1194.1925	1088.8036	202.73978	-1428.3186	1082.6987	241.02905	-1432.5209	-1171.9642	1686.995	-1581.7332	-1170.693	1648.0162	-1581.5475	-1270.425	1699.246	1096.3407	-1270.3646	1660.2504	1095.7596	952.73102	1705.7163	1186.9186	972.67401	1733.8798	1168.7502	1026.5563	1669.23	-1551.5795	1028.0653	1630.2614	-1551.9829	-190.58014	1178.0591	-198.84573	-189.60765	1139.0808	-197.98123
800	6.6583333	-1038.2565	214.55524	-1644.0891	-1109.3635	204.04082	-1599.359	-1063.5393	173.03949	-1625.9208	-1054.1569	262.28815	-1634.9003	-1352.7188	235.35883	1003.689	-1281.3846	227.39601	1052.1935	-1322.7631	194.03867	1020.8134	-1284.675	287.80606	1052.7242	813.90112	187.63647	1209.4636	892.51111	178.4882	1179.1157	844.42993	145.53433	1198.2789	861.01404	292.71844	1168.6653	1115.826	209.95268	-1401.8002	1056.2604	194.05898	-1460.1326	1095.1333	162.34708	-1423.886	1069.9086	239.08194	-1425.7938	-1204.53	1686.0024	-1563.2374	-1129.179	1688.4442	-1606.5585	-1173.1772	1724.4747	-1581.9268	-1134.0317	1581.0608	-1603.861	-1239.3163	1698.6698	1119.3059	-1309.2545	1698.6204	1071.8347	-1270.4966	1736.3427	1096.8966	-1245.035	1593.8113	1106.5356	988.81732	1664.1973	1162.2178	957.27832	1700.5469	1183.7791	922.71802	1662.0931	1214.9789	939.849	1659.4113	1159.8217	999.12341	1668.4611	-1579.447	1058.9082	1670.1279	-1518.7084	1025.0477	1708.049	-1551.1759	1059.3101	1672.1486	-1585.4459	-187.68306	1177.2927	-236.59113	-194.17255	1179.1208	-152.38899	-191.51024	1215.0326	-199.66745	-222.40352	1175.6436	-202.06035	-142.50209	1180.4696	-196.02744																																														-1068.4845	210.08548	-1625.074	-1073.6436	248.73265	-1624.1908	-1321.3844	231.86107	1024.9951	-1319.9725	270.59946	1029.2781	848.08911	183.65782	1196.2651	851.81018	222.42586	1194.2172	1088.7236	202.72104	-1428.3413	1082.6447	241.01192	-1432.5668	-1171.9791	1687.0573	-1581.9517	-1170.7308	1648.0773	-1581.9775	-1271.057	1698.6472	1097.7615	-1271.6366	1659.6617	1098.656	953.1394	1705.3169	1186.6084	972.91705	1733.4176	1168.1642	1026.5468	1669.2256	-1551.5861	1028.0514	1630.2567	-1551.9977	-190.59596	1178.1133	-198.79538	-189.63075	1139.1361	-197.87469
801	6.6666667	-1038.2548	214.50726	-1644.12	-1109.3716	204.07874	-1599.3763	-1063.541	172.99362	-1625.9264	-1054.1398	262.26917	-1634.9178	-1352.709	235.32565	1003.7349	-1281.4215	227.32925	1052.1826	-1322.6797	194.12187	1020.7825	-1284.4534	287.87567	1052.6415	813.99969	187.62086	1209.5708	892.61151	178.577	1179.0692	844.42651	145.5407	1198.2333	861.25385	292.5043	1168.5546	1115.8398	209.96893	-1401.7988	1056.2523	194.0305	-1460.1667	1095.0428	161.95979	-1423.4976	1069.7874	238.84743	-1425.8469	-1204.5448	1686.0031	-1563.2461	-1129.1327	1688.3044	-1606.0199	-1173.1675	1724.4695	-1581.9316	-1134.0432	1581.045	-1603.8335	-1239.5145	1698.9557	1119.3894	-1309.2051	1698.5637	1071.8042	-1270.4819	1736.3254	1096.8881	-1244.9724	1593.7112	1106.51	988.84668	1664.2207	1162.2002	957.4834	1700.3513	1183.7896	922.17871	1662.2933	1214.9644	939.81805	1659.4189	1159.876	999.12384	1668.4661	-1579.4419	1058.7833	1669.9623	-1518.729	1025.0474	1708.0433	-1551.1713	1059.3059	1672.1362	-1585.4492	-187.68195	1177.2845	-236.59546	-194.1209	1179.0129	-152.47569	-191.50645	1215.0157	-199.66905	-222.41066	1175.6398	-202.06665	-142.51041	1180.4396	-196.03891																																														-1068.4666	210.077	-1625.1118	-1073.6003	248.72832	-1624.2631	-1321.3502	231.80809	1025.0466	-1319.9841	270.53702	1029.4287	848.08417	183.69962	1196.3458	851.8009	222.47472	1194.428	1088.8126	202.7397	-1428.2728	1082.9618	241.03665	-1432.7574	-1171.921	1686.9987	-1581.7501	-1170.6246	1648.0206	-1581.5615	-1270.9696	1698.7787	1097.9115	-1271.476	1659.7964	1098.9741	952.87024	1705.6655	1186.965	972.80011	1733.8298	1168.7834	1026.4709	1669.1519	-1551.6118	1027.8973	1630.1804	-1552.0531	-190.57207	1178.0603	-198.83824	-189.58653	1139.0825	-197.96201
802	6.675	-1038.2512	214.52068	-1644.1006	-1109.3871	204.05229	-1599.3706	-1063.5466	172.96986	-1625.9524	-1054.1202	262.28195	-1634.9033	-1352.7548	235.34662	1003.7241	-1281.4385	227.37427	1052.1941	-1322.7528	194.0714	1020.7536	-1284.5996	287.82019	1052.7495	813.914	187.6268	1209.4069	892.45703	178.34077	1179.1448	844.44879	145.47636	1198.2478	861.27576	292.5787	1168.3632	1115.7672	209.66626	-1401.6477	1056.3036	194.02713	-1460.2101	1095.1212	162.24188	-1423.6917	1069.7706	238.8591	-1425.9177	-1204.5552	1686.0128	-1563.2474	-1129.1074	1688.4652	-1606.4525	-1173.1772	1724.4778	-1581.9336	-1134.0245	1581.0374	-1603.8656	-1239.5519	1699.0077	1119.4136	-1309.2167	1698.5906	1071.8278	-1270.4674	1736.3066	1096.8798	-1244.9083	1593.9459	1106.3966	988.8385	1664.2124	1162.2314	957.25012	1700.4901	1183.8158	922.18622	1662.2415	1214.9116	939.85535	1659.3691	1159.8474	999.11859	1668.4489	-1579.4293	1058.9434	1670.1591	-1518.7205	1025.0446	1708.0463	-1551.1913	1059.3049	1672.1824	-1585.5635	-187.6792	1177.2925	-236.59705	-194.18753	1179.1356	-152.40384	-191.49106	1214.9907	-199.66689	-222.38954	1175.6326	-202.06546	-142.48575	1180.4615	-196.03435																																														-1068.4702	210.07362	-1625.0989	-1073.5991	248.72467	-1624.2098	-1321.427	231.84453	1025.0159	-1320.0676	270.57504	1029.386	848.16785	183.577	1196.209	851.95135	222.33759	1194.1349	1088.8784	202.59441	-1428.1288	1082.9507	240.91032	-1432.3422	-1171.9521	1687.0725	-1581.9174	-1170.6754	1648.0935	-1581.9005	-1270.974	1698.8195	1097.9501	-1271.5011	1659.8389	1099.063	952.80438	1705.5956	1186.8535	972.69434	1733.759	1168.6268	1026.5555	1669.233	-1551.5868	1028.0726	1630.2646	-1551.984	-190.6017	1178.12	-198.79092	-189.66153	1139.1423	-197.86488
